<svg width="56" height="56" viewBox="0 0 56 56" fill="none" xmlns="http://www.w3.org/2000/svg">
<path d="M56 30C56 31.1046 55.1046 32 54 32H34C32.8954 32 32 32.8954 32 34V54C32 55.1046 31.1046 56 30 56H26C24.8954 56 24 55.1046 24 54V34C24 32.8954 23.1046 32 22 32H2C0.89543 32 0 31.1046 0 30V26C0 24.8954 0.895431 24 2 24H22C23.1046 24 24 23.1046 24 22V2C24 0.89543 24.8954 0 26 0H30C31.1046 0 32 0.895431 32 2V22C32 23.1046 32.8954 24 34 24H54C55.1046 24 56 24.8954 56 26V30Z" fill="#FD6531"/>
</svg>
